/* XPM */
static char * calculator_image_xpm[] = {
"32 32 9 1",
" 	c #FFFFFF",
".	c #FEFEFE",
"+	c #000000",
"@	c #060606",
"#	c #F9F9F9",
"$	c #FF8F00",
"%	c #FDBB68",
"&	c #FAFAFA",
"*	c #FBFBFB",
"                                ",
"                                ",
"     .+++++++++@++++++++++#     ",
"   . +$$$$$$$$$++$$$$$$$$$+.    ",
"    +$$$$$$$$$$++$$$$$$$$$$+    ",
"   +$$$$$$$$$$$++$$$$$$$$$$$+   ",
"  +$$$$$$$$$$$$++$$$$$$$$$$$$+  ",
"  +$$$$$+$$$$$$++$$$$$$$$$$$$+  ",
". +$$$$$+$$$$$$++$$$$$$$$$$$$+  ",
"  +$$$+++++$$$$++$$$+++++$$$$+  ",
"  +$$$$$+$$$$$$++$$$$$$$$$$$$+  ",
"  +$$$$$+$$$$$$++$$$$$$$$$$$$+  ",
"  +$$$$$$$$$$$$++$$$$$$$$$$$$+  ",
"  +$$$$$$$$$$$$++$$$$$$$$$$$$+  ",
"  +$$$$$$$$$$$$++$$$$$$$$$$$$+  ",
"  ++++++++++++++++++++++++++++  ",
"  ++++++++++++++++++++++++++++  ",
"  +$$$$$$$$$$$$++%%%%%%%%%%%%+  ",
"  +$$$$$$$$$$$$++%%%%%%%%%%%%+  ",
"  +$$$$$$$$$$$$++%%%%%%%%%%%%+  ",
"  +$$$$$$$$$$$$++%%%%%%%%%%%%+  ",
"  +$$$$$+$$$$$$++%%%++++++%%%+  ",
"  +$$$$$$$$$$$$++%%%%%%%%%%%%+  ",
"  +$$$+++++$$$$++%%%++++++%%%+  ",
"  +$$$$$$$$$$$$++%%%%%%%%%%%%+  ",
"  +$$$$$+$$$$$$++%%%%%%%%%%%%+  ",
"   +$$$$$$$$$$$++%%%%%%%%%%%+&  ",
"    +$$$$$$$$$$++%%%%%%%%%%+    ",
"     +$$$$$$$$$++%%%%%%%%%+     ",
"     *++++++++++++++++++++*. .  ",
"                                ",
"                                "};
